<?xml version="1.0" standalone="no"?>
<!DOCTYPE svg PUBLIC "-//W3C//DTD SVG 20010904//EN"
 "http://www.w3.org/TR/2001/REC-SVG-20010904/DTD/svg10.dtd">
<svg version="1.0" xmlns="http://www.w3.org/2000/svg"
 width="2358.000000pt" height="2602.000000pt" viewBox="0 0 2358.000000 2602.000000"
 preserveAspectRatio="xMidYMid meet">

<g transform="translate(0.000000,2602.000000) scale(0.100000,-0.100000)"
fill="#b91c1c" stroke="none">
<path d="M11761 25915 c-62 -136 -203 -394 -278 -510 -181 -278 -277 -341
-453 -301 -147 33 -194 20 -365 -103 -55 -40 -118 -82 -140 -93 -55 -29 -153
-33 -310 -14 -331 41 -442 12 -626 -162 -138 -130 -175 -146 -319 -141 -58 2
-175 3 -260 4 -147 0 -158 -1 -211 -26 -66 -31 -85 -56 -156 -202 -62 -126
-121 -218 -160 -245 -48 -33 -94 -43 -233 -53 -166 -11 -216 -22 -303 -66 -85
-45 -177 -141 -201 -209 -10 -29 -21 -105 -26 -184 -5 -75 -15 -153 -22 -175
l-13 -38 -220 -48 -220 -47 -110 80 c-60 44 -144 96 -185 116 -73 36 -78 37
-190 37 -108 0 -119 -2 -181 -31 -45 -22 -96 -59 -155 -114 -145 -135 -236
-165 -454 -149 -135 10 -219 0 -298 -38 -81 -38 -190 -147 -281 -282 -141
-208 -198 -241 -389 -223 -179 17 -263 -10 -365 -117 -59 -62 -102 -132 -170
-272 -47 -98 -110 -180 -157 -204 -16 -8 -61 -20 -102 -26 -102 -15 -159 -42
-216 -103 -72 -76 -123 -189 -192 -432 -32 -115 -67 -228 -76 -249 -24 -58
-68 -118 -159 -220 -213 -237 -241 -282 -232 -373 3 -32 24 -122 47 -202 23
-80 42 -161 43 -180 1 -44 -49 -160 -148 -342 -89 -162 -88 -158 -29 -290 34
-73 38 -92 39 -163 0 -90 -7 -106 -117 -267 -121 -178 -217 -383 -244 -520
-21 -107 -11 -186 35 -284 43 -92 106 -170 265 -330 161 -161 241 -216 386
-265 93 -32 99 -33 330 -40 283 -8 299 -12 440 -125 182 -145 298 -184 620
-210 120 -9 189 -29 226 -65 l31 -30 89 11 c121 15 183 38 519 190 494 224
746 324 1215 481 1220 406 2471 636 3975 731 268 17 1365 17 1620 0 865 -57
1449 -141 2170 -311 72 -17 205 -46 296 -66 754 -160 2681 -807 2979 -1001 40
-26 53 -29 120 -27 41 0 143 15 225 32 83 17 202 39 265 50 201 35 293 73 413
174 28 24 89 67 134 95 l82 52 208 5 c215 4 347 20 443 53 238 82 476 301 595
545 58 121 78 207 73 323 -3 77 -9 101 -35 155 -18 35 -54 87 -81 115 -35 37
-52 65 -61 99 -6 26 -31 86 -55 134 -56 110 -76 179 -76 256 0 64 0 64 101
224 31 50 34 60 33 130 -2 147 -56 231 -219 344 l-90 63 -3 55 c-2 37 8 100
33 199 66 270 40 398 -112 545 -54 52 -197 151 -259 179 l-41 18 -12 121 c-36
360 -97 558 -193 628 -38 27 -61 33 -212 58 -143 24 -195 72 -256 236 -60 160
-82 196 -165 280 -58 59 -99 91 -150 116 l-70 34 -207 4 -208 3 -34 47 c-18
25 -63 99 -100 164 -80 144 -112 186 -173 226 -83 55 -157 72 -363 81 -274 13
-350 39 -525 180 -135 108 -170 125 -265 124 -89 -1 -173 -27 -257 -81 -85
-54 -213 -111 -299 -133 -156 -40 -268 -17 -347 70 -46 52 -59 80 -122 285
-98 316 -177 371 -565 391 -130 7 -132 8 -160 37 -15 16 -56 77 -91 134 -144
236 -201 298 -316 345 -55 22 -68 23 -273 20 -224 -2 -297 6 -360 39 -19 10
-79 61 -133 113 -126 123 -193 158 -312 164 -67 4 -108 -1 -207 -24 -158 -37
-272 -39 -338 -7 -25 13 -81 54 -125 93 -123 108 -219 135 -375 105 -47 -9
-118 -19 -158 -22 l-74 -6 -67 69 c-119 122 -192 245 -364 611 -58 122 -111
231 -119 242 -14 19 -17 15 -57 -74z m-634 -1174 c131 -66 134 -220 7 -390
-44 -59 -38 -58 -194 -33 l-105 17 -24 60 c-13 33 -26 90 -29 127 -4 58 -1 75
21 121 29 58 69 93 131 113 54 18 143 11 193 -15z m1578 -30 c116 -52 159
-194 89 -294 -62 -86 -202 -130 -299 -93 -78 30 -145 133 -145 222 0 45 43 92
121 134 103 55 164 63 234 31z m-2527 -55 c50 -26 102 -84 133 -150 23 -49 29
-75 29 -132 0 -172 -124 -274 -319 -262 -248 15 -366 263 -208 436 52 55 86
80 156 109 65 28 155 27 209 -1z m3487 -13 c104 -54 166 -179 165 -332 0 -43
-4 -49 -60 -99 -90 -81 -134 -102 -207 -102 -116 0 -249 68 -303 154 -91 148
-9 332 175 393 58 19 180 11 230 -14z m-4396 -432 c57 -76 81 -138 81 -212 0
-45 -3 -50 -53 -93 -69 -59 -127 -84 -213 -92 l-69 -6 -47 78 c-151 255 -85
386 198 393 l50 1 53 -69z m5329 34 c41 -35 88 -111 103 -167 11 -41 11 -52
-4 -83 -9 -19 -28 -41 -43 -47 -14 -7 -31 -26 -38 -43 -16 -38 -117 -95 -167
-95 -206 0 -292 249 -137 397 49 47 92 62 180 63 67 0 80 -3 106 -25z m-2679
-292 c56 -18 124 -70 145 -112 44 -86 23 -171 -66 -267 -93 -99 -163 -126
-254 -99 -68 20 -135 81 -173 156 -77 154 -36 271 112 318 77 25 169 26 236 4z
m-844 -104 c24 -7 57 -28 81 -53 36 -37 44 -54 73 -161 18 -66 57 -174 86
-240 87 -195 85 -222 -26 -362 -84 -106 -104 -161 -97 -268 5 -78 33 -148 105
-259 33 -52 38 -68 41 -131 4 -79 -3 -101 -78 -217 -60 -93 -83 -178 -78 -291
3 -82 8 -101 40 -167 20 -41 53 -100 73 -131 45 -70 54 -123 30 -186 -14 -35
-55 -85 -170 -203 -178 -183 -261 -290 -321 -415 -56 -116 -75 -190 -75 -295
1 -161 49 -275 210 -486 122 -161 141 -197 141 -266 0 -71 -31 -117 -102 -152
-160 -78 -451 -40 -583 76 -73 63 -93 136 -105 373 -11 243 -36 314 -140 408
-84 76 -148 101 -261 105 -142 5 -274 -33 -432 -126 -111 -66 -180 -131 -216
-204 -44 -86 -42 -161 5 -344 31 -119 35 -151 32 -219 -7 -123 -57 -201 -185
-289 -221 -151 -501 -134 -685 42 -85 80 -81 108 42 353 103 205 121 259 121
368 0 204 -97 361 -308 501 -43 28 -162 94 -265 145 -103 52 -189 99 -192 104
-12 19 -26 153 -32 301 -27 648 216 1226 701 1663 355 321 806 565 1400 760
345 113 732 223 925 262 82 17 193 18 245 4z m1857 -38 c603 -109 1284 -385
1798 -726 194 -129 315 -225 454 -363 181 -179 279 -312 366 -495 179 -377
277 -1006 204 -1305 -15 -65 -23 -78 -63 -113 -61 -54 -145 -92 -274 -123
-134 -33 -189 -60 -248 -123 -123 -131 -190 -417 -144 -612 9 -35 42 -127 74
-205 57 -136 99 -291 87 -321 -8 -23 -146 -109 -223 -140 -97 -39 -233 -46
-329 -17 -140 43 -274 147 -321 248 -23 50 -25 65 -20 138 3 51 18 127 42 206
32 112 36 134 32 215 -2 68 -9 100 -26 133 -60 116 -229 216 -470 279 -137 36
-313 37 -389 4 -137 -61 -195 -213 -227 -591 -28 -335 -22 -307 -66 -324 -153
-62 -533 -60 -674 3 -45 20 -55 42 -55 124 0 69 74 188 136 219 17 9 34 33 49
71 12 31 41 88 63 125 65 110 102 189 119 255 22 87 13 199 -24 302 -56 156
-124 253 -344 488 -113 122 -194 229 -206 275 -8 33 21 91 100 202 78 109 103
176 92 248 -10 73 -60 186 -137 315 -87 145 -87 150 5 310 85 149 92 169 91
257 -1 88 -15 123 -103 259 -33 52 -64 110 -67 129 -10 50 7 116 103 405 69
206 90 261 107 268 38 16 360 3 488 -20z m-4518 -52 c49 -14 122 -80 137 -126
6 -19 9 -64 7 -99 -3 -52 -9 -70 -34 -101 -66 -81 -154 -119 -238 -101 -59 13
-101 50 -137 124 -27 54 -33 81 -37 147 l-4 82 44 24 c94 53 187 71 262 50z
m6970 -13 c27 -8 66 -27 88 -41 l41 -27 -5 -71 c-6 -86 -35 -157 -86 -210
-170 -177 -402 -61 -390 194 l3 63 55 39 c92 64 195 83 294 53z m-8518 -551
c21 -13 61 -105 83 -190 32 -121 -15 -221 -128 -275 l-48 -22 -42 21 c-99 51
-161 138 -161 225 0 38 9 65 45 130 49 91 61 104 120 134 37 18 43 19 75 6 19
-8 45 -21 56 -29z m10077 -44 c61 -40 91 -96 91 -176 1 -53 -5 -72 -45 -150
-26 -50 -54 -114 -64 -143 -15 -47 -20 -53 -39 -48 -11 3 -31 6 -44 6 -25 0
-122 91 -122 114 0 7 -18 50 -41 94 -43 87 -51 142 -35 238 7 41 9 42 74 67
96 36 165 36 225 -2z m-9146 -36 c192 -86 241 -284 101 -410 -64 -58 -131 -85
-213 -85 -116 0 -207 57 -252 158 -20 45 -23 187 -5 247 11 37 18 43 87 74
120 55 186 58 282 16z m8212 -1 c29 -9 77 -26 106 -39 l53 -23 7 -67 c31 -284
-129 -424 -383 -335 -112 40 -168 111 -160 206 8 100 115 267 176 277 42 7
141 -3 201 -19z m-4105 -74 c147 -56 221 -216 153 -332 -55 -95 -141 -142
-257 -142 -166 -1 -268 106 -278 289 l-4 81 54 37 c122 85 228 106 332 67z
m5865 -185 c46 -14 85 -26 86 -27 2 -2 6 -65 10 -140 l7 -137 -59 -38 c-126
-81 -245 -107 -301 -67 -42 31 -66 89 -66 159 1 71 31 150 63 160 13 4 21 15
21 28 1 32 76 86 120 86 19 0 73 -11 119 -24z m-11723 -5 c81 -40 117 -126
112 -270 l-3 -85 -79 -40 c-75 -37 -86 -40 -165 -40 -103 0 -136 18 -172 92
-25 52 -35 160 -22 233 8 41 13 48 58 72 107 60 199 72 271 38z m12584 -436
c25 -14 82 -60 128 -103 l82 -77 0 -60 c0 -64 -25 -132 -63 -172 -71 -76 -239
-105 -374 -64 -100 31 -163 100 -163 181 0 31 7 49 30 74 16 19 37 58 46 86
18 53 70 123 107 143 62 33 136 30 207 -8z m-13474 -14 c74 -36 168 -120 194
-171 35 -68 27 -99 -57 -230 -69 -107 -99 -126 -230 -144 -52 -8 -112 -23
-133 -34 l-39 -20 -78 80 c-88 91 -92 97 -105 151 -11 50 7 162 32 203 22 35
140 135 202 170 62 36 137 34 214 -5z m2184 -22 c30 -18 74 -57 98 -87 42 -51
43 -56 37 -100 -11 -78 -50 -148 -117 -213 -62 -60 -63 -60 -110 -55 -143 17
-247 137 -256 296 l-4 76 64 42 c123 82 200 93 288 41z m9113 -2 c65 -27 144
-83 152 -108 8 -24 -12 -130 -35 -183 -24 -55 -83 -121 -131 -146 -77 -39
-174 -16 -229 53 -56 72 -90 195 -76 272 8 43 58 104 101 122 49 22 152 17
218 -10z m-4506 -282 c105 -34 172 -123 157 -208 -15 -94 -95 -203 -181 -246
-64 -33 -175 -39 -240 -15 -94 36 -158 124 -169 232 -14 137 53 222 197 253
60 12 173 5 236 -16z m-5508 -14 c46 -5 107 -16 136 -24 50 -15 52 -18 87 -88
82 -165 79 -214 -23 -370 -67 -101 -98 -193 -106 -311 -12 -184 32 -308 162
-462 90 -105 105 -131 105 -182 -1 -60 -29 -109 -145 -248 -131 -157 -211
-276 -256 -382 -30 -70 -33 -88 -34 -173 0 -84 3 -101 26 -145 39 -72 134
-158 294 -265 218 -146 305 -248 305 -361 0 -41 -4 -49 -40 -78 -74 -59 -138
-86 -205 -86 -109 1 -177 53 -354 270 -239 293 -329 354 -560 377 -283 28
-457 -44 -546 -225 -41 -83 -77 -219 -100 -374 -23 -154 -18 -178 61 -266 88
-97 128 -179 132 -272 3 -61 0 -79 -21 -121 -72 -142 -297 -244 -539 -244
l-81 0 5 88 c5 72 17 122 71 287 73 222 94 335 82 449 l-7 71 -61 54 c-137
122 -236 225 -261 271 -38 69 -48 168 -36 348 21 314 37 453 66 582 138 608
552 1235 1064 1610 201 147 324 218 427 244 124 32 231 40 352 26z m10812 -66
c68 -12 99 -13 144 -5 173 32 295 -14 556 -211 235 -177 476 -435 651 -698 98
-146 226 -397 283 -554 110 -299 185 -715 185 -1018 0 -212 -31 -288 -158
-391 -109 -88 -176 -152 -207 -198 -27 -38 -28 -42 -22 -142 6 -129 34 -236
104 -407 73 -177 85 -221 87 -305 l1 -70 -91 2 c-220 6 -462 128 -524 265 -26
56 -26 152 -1 217 10 27 48 92 85 145 36 52 71 107 77 123 35 92 -20 392 -101
553 -57 113 -155 195 -274 226 -127 34 -383 8 -501 -50 -99 -49 -168 -115
-321 -307 -176 -221 -225 -258 -345 -267 -102 -7 -217 32 -307 105 l-42 35 22
40 c38 67 175 187 358 313 223 154 262 193 292 288 32 102 32 276 0 358 -37
93 -92 168 -225 307 -141 147 -167 187 -167 262 0 64 20 104 101 199 97 116
138 180 159 249 38 122 23 214 -64 402 -132 284 -146 447 -44 523 52 39 116
41 289 11z m1996 -232 c106 -33 192 -103 235 -191 19 -37 23 -63 23 -131 0
-76 -4 -93 -33 -152 -37 -76 -92 -130 -167 -164 -162 -74 -351 -49 -461 61
-80 80 -103 187 -69 318 36 140 117 232 235 268 48 14 176 10 237 -9z m-14685
-13 c131 -28 241 -111 273 -208 24 -73 15 -146 -30 -237 -109 -224 -393 -315
-554 -178 -104 89 -166 294 -128 425 46 156 234 241 439 198z m2680 -259 c175
-54 271 -194 267 -388 -2 -102 -8 -114 -69 -144 -165 -80 -346 -58 -470 58
-111 104 -144 250 -84 371 16 31 41 65 55 76 69 50 192 61 301 27z m9328 -37
c131 -61 196 -167 171 -275 -41 -179 -239 -295 -452 -266 -75 10 -125 36 -172
87 -61 68 -64 177 -8 296 66 141 159 198 316 192 65 -3 93 -9 145 -34z m-4675
-428 c185 -49 344 -205 374 -369 37 -201 -10 -376 -130 -491 -128 -122 -311
-161 -491 -105 -80 25 -135 59 -195 122 -93 99 -133 211 -133 378 0 154 38
257 126 346 112 114 288 161 449 119z m-7755 -114 c71 -27 145 -83 189 -145
l35 -48 -12 -66 c-17 -102 -64 -185 -156 -279 l-81 -81 -57 9 c-147 24 -247
89 -298 193 -31 62 -32 70 -28 156 4 82 8 97 48 176 25 47 49 88 54 92 46 28
225 24 306 -7z m15605 -1 c112 -77 149 -160 143 -320 -3 -91 -5 -102 -33 -140
-29 -42 -125 -109 -214 -151 -80 -38 -161 -11 -258 87 -69 70 -129 180 -139
257 -8 56 12 93 91 166 66 59 143 98 234 116 103 21 127 18 176 -15z m-3625
-395 c147 -39 293 -152 352 -273 29 -58 33 -77 33 -142 0 -62 -5 -84 -27 -125
-52 -98 -178 -197 -325 -257 -64 -25 -96 -32 -178 -36 -88 -4 -107 -2 -152 18
-130 56 -213 214 -213 405 0 199 95 354 250 408 57 20 188 21 260 2z m-8468
-6 c130 -27 248 -114 296 -217 50 -111 50 -275 -3 -389 -113 -249 -474 -297
-690 -92 -161 152 -177 417 -34 574 100 108 270 158 431 124z m12263 -483 c28
-13 78 -44 113 -70 l62 -48 0 -67 c0 -226 -150 -424 -321 -424 -145 0 -232
124 -233 333 -1 114 15 161 73 223 71 77 206 100 306 53z m-15975 -23 c101
-45 154 -133 153 -253 -2 -220 -159 -368 -335 -316 -142 41 -242 164 -282 346
-4 22 7 39 70 108 70 76 120 112 184 133 42 14 161 4 210 -18z m7931 -379 c95
-77 218 -209 272 -291 61 -93 81 -150 75 -215 -5 -43 -11 -57 -41 -84 -19 -18
-52 -37 -74 -43 -132 -37 -419 -39 -545 -3 -116 33 -175 84 -185 159 -9 66 13
118 78 190 34 37 82 97 107 133 79 113 185 210 230 210 8 0 46 -25 83 -56z
m1939 -185 c140 -22 248 -99 308 -219 93 -184 -14 -260 -351 -247 -155 6 -261
20 -424 59 l-93 22 0 38 c0 93 65 203 156 263 116 77 260 107 404 84z m-3751
-30 c154 -33 283 -161 299 -296 l4 -41 -78 -25 c-146 -46 -278 -62 -519 -62
-248 0 -269 5 -291 65 -7 19 -13 55 -13 80 -2 199 304 342 598 279z m5861
-122 c0 -1 15 -54 34 -118 41 -140 69 -307 60 -357 -34 -187 -237 -221 -604
-103 -135 44 -244 88 -248 100 -2 6 8 37 23 68 18 41 50 81 109 138 124 121
275 202 461 251 76 19 165 31 165 21z m-8019 -21 c121 -26 246 -103 382 -235
84 -82 167 -189 167 -216 0 -18 -121 -71 -230 -99 -137 -37 -278 -56 -413 -56
-99 0 -124 3 -158 21 -87 44 -100 158 -40 338 40 119 85 207 117 228 14 9 42
20 62 24 21 3 39 7 42 8 3 0 35 -6 71 -13z m-3876 -280 c170 -45 282 -160 326
-336 67 -264 -62 -489 -325 -565 -83 -24 -232 -17 -301 14 -168 75 -246 207
-248 421 0 121 18 199 65 272 28 45 112 125 168 161 66 43 220 59 315 33z
m15842 -18 c162 -60 260 -252 251 -491 -3 -89 -8 -111 -35 -169 -61 -130 -178
-214 -331 -239 -123 -20 -259 15 -344 90 -43 38 -176 230 -194 281 -52 143 46
349 220 461 142 93 298 117 433 67z m-2396 -491 c90 -31 170 -81 244 -154 67
-66 125 -166 125 -214 0 -26 -3 -28 -70 -39 -165 -28 -409 42 -558 159 -63 50
-70 73 -42 139 52 120 157 158 301 109z m-11145 -11 c55 -25 93 -68 120 -131
l16 -40 -50 -46 c-28 -25 -90 -67 -140 -92 -219 -113 -451 -153 -515 -88 -50
50 -8 173 89 260 159 141 353 196 480 137z"/>
<path d="M11080 18590 c-1343 -62 -2649 -300 -3975 -725 -440 -141 -1072 -374
-1240 -457 -109 -55 -334 -178 -340 -187 -6 -12 50 -396 73 -491 28 -116 75
-242 117 -313 36 -60 210 -306 242 -342 51 -57 84 -75 138 -75 67 0 88 8 331
120 329 152 697 295 1134 438 2075 681 4371 847 6610 476 921 -152 1951 -429
2535 -681 526 -228 693 -293 748 -293 33 0 158 83 241 161 88 82 150 163 202
265 67 129 91 224 123 468 l27 218 -71 53 c-278 206 -550 322 -1339 571 -1424
450 -2679 688 -4131 785 -208 13 -1187 20 -1425 9z m892 -409 c127 -33 240
-75 340 -128 36 -19 98 -43 137 -53 40 -10 83 -26 97 -35 31 -20 51 -65 56
-125 l3 -44 -165 -47 c-105 -29 -203 -65 -270 -97 -155 -75 -249 -104 -356
-110 -123 -6 -174 7 -329 88 -137 72 -193 92 -374 135 -122 29 -124 31 -92 93
66 130 292 258 605 343 92 25 196 19 348 -20z m-1878 -172 c50 -17 102 -38
114 -46 36 -22 64 -95 63 -164 0 -112 -51 -179 -165 -219 -98 -35 -173 -22
-243 43 -88 81 -126 214 -89 311 42 109 146 134 320 75z m3646 -9 c71 -36 108
-113 95 -196 -8 -54 -55 -149 -98 -199 -32 -36 -36 -38 -109 -43 -191 -12
-287 68 -305 254 -3 34 -3 72 0 85 9 37 144 103 247 123 45 8 131 -4 170 -24z
m-4960 -210 c98 -20 259 -90 293 -128 15 -17 16 -23 2 -68 -34 -114 -138 -205
-387 -336 -279 -147 -322 -153 -718 -111 -95 10 -179 13 -242 8 l-98 -7 0 49
c1 26 7 64 14 84 17 49 90 142 170 217 262 244 640 359 966 292z m6560 -18
c142 -55 413 -243 524 -363 98 -106 153 -230 109 -243 -76 -21 -344 -40 -584
-41 l-266 0 -94 47 c-252 125 -510 345 -509 432 0 12 13 35 28 53 32 37 116
65 337 113 123 26 155 29 270 27 103 -3 141 -8 185 -25z m-8435 -579 c46 -98
65 -171 65 -244 l0 -57 -57 -38 c-75 -50 -142 -74 -207 -74 -68 0 -111 28
-145 95 -23 44 -26 61 -26 162 0 129 -5 120 110 178 69 35 129 52 192 54 31 1
34 -3 68 -76z m10102 -10 l66 -36 -6 -81 c-7 -86 -33 -176 -70 -241 l-23 -40
-123 2 c-69 1 -129 7 -136 13 -7 6 -29 44 -50 84 -34 68 -37 79 -33 142 8 143
66 194 221 194 84 0 93 -2 154 -37z m819 -359 l42 -24 -34 -132 c-36 -145 -51
-167 -123 -188 -54 -15 -77 -3 -121 62 -45 68 -49 97 -22 192 18 64 40 87 108
111 48 18 95 11 150 -21z m-11853 -4 c77 -29 117 -64 117 -101 0 -37 -56 -178
-82 -206 -21 -22 -96 -53 -130 -53 -22 0 -88 41 -88 55 0 6 -9 70 -19 143
l-18 133 51 30 c57 34 77 33 169 -1z"/>
<path d="M12030 16514 c-425 -43 -2363 -303 -2379 -319 -2 -3 1 -29 8 -60 8
-35 31 -83 66 -136 30 -44 62 -105 71 -134 17 -52 17 -52 -10 -102 -56 -102
-164 -232 -315 -378 -85 -82 -202 -196 -260 -253 l-106 -102 415 140 c275 94
436 143 476 147 87 8 150 -15 223 -83 73 -68 249 -293 422 -539 190 -272 218
-309 223 -294 2 8 21 75 42 149 97 351 235 643 398 846 118 147 201 206 361
258 186 60 331 76 740 82 182 2 355 7 385 10 l55 6 -30 25 c-54 44 -215 134
-384 216 -173 83 -323 164 -362 195 l-22 19 34 49 c18 27 69 87 114 134 44 47
91 97 104 113 l24 27 -79 -1 c-43 -1 -140 -8 -214 -15z"/>
<path d="M14820 15445 c-36 -91 -69 -165 -74 -165 -5 0 -86 22 -180 49 -94 27
-265 70 -381 95 -415 91 -728 156 -732 152 -2 -2 90 -73 204 -159 182 -135
308 -221 589 -402 97 -62 202 -152 239 -204 27 -39 30 -50 30 -119 0 -66 -5
-87 -32 -144 -56 -119 -116 -198 -338 -443 -158 -175 -237 -282 -275 -371 -35
-80 -38 -77 118 -70 190 10 298 21 587 63 303 44 486 50 575 19 131 -45 165
-83 430 -471 78 -115 181 -261 228 -324 84 -112 266 -311 275 -301 2 3 -2 118
-9 255 -7 138 -16 363 -20 501 l-7 251 79 -4 c43 -2 150 -8 237 -14 88 -6 161
-8 164 -6 7 7 -34 83 -89 164 -56 84 -113 147 -328 368 -171 175 -253 271
-530 625 -431 550 -604 760 -660 800 -15 11 -30 20 -32 20 -1 0 -32 -74 -68
-165z"/>
<path d="M8286 15335 c-210 -126 -482 -430 -763 -850 -293 -438 -538 -917
-597 -1165 -40 -168 -68 -312 -62 -318 4 -3 78 68 165 158 177 185 239 230
292 211 43 -15 75 -42 149 -126 71 -81 173 -172 177 -159 1 5 11 95 23 199 36
333 58 440 120 571 77 166 163 273 481 600 216 221 287 312 263 333 -5 5 -90
23 -189 41 -99 17 -190 34 -202 37 -20 4 -17 13 54 161 131 274 162 342 154
342 -4 0 -33 -16 -65 -35z"/>
<path d="M10886 14165 c-3 -50 -8 -151 -11 -225 -29 -667 -104 -1123 -203
-1238 -34 -40 -110 -83 -722 -405 -272 -143 -504 -266 -514 -273 -24 -16 -8
-24 619 -304 459 -205 640 -290 678 -320 31 -24 52 -109 97 -380 60 -364 140
-1016 140 -1137 0 -35 4 -63 9 -63 15 0 119 119 170 193 26 40 95 151 153 247
58 96 175 279 260 405 85 127 183 278 217 338 61 103 64 107 98 107 73 0 512
-73 1173 -196 518 -96 733 -134 737 -130 8 7 -192 218 -592 626 -390 396 -573
595 -605 654 -13 26 -12 31 15 79 55 100 190 294 404 582 253 341 368 510 416
610 19 40 35 76 35 80 0 12 -115 -1 -252 -30 -68 -14 -303 -72 -523 -130 -568
-150 -745 -183 -818 -156 -73 28 -264 249 -647 746 -134 175 -263 338 -286
364 l-42 46 -6 -90z"/>
<path d="M18675 13450 c-141 -17 -255 -72 -361 -173 -286 -271 -417 -779 -337
-1317 36 -245 121 -444 283 -658 33 -44 60 -83 60 -87 0 -4 -20 -30 -44 -58
-117 -138 -240 -372 -299 -567 -65 -213 -81 -341 -81 -625 0 -262 12 -390 55
-558 89 -350 259 -559 525 -643 142 -45 366 -49 516 -9 341 90 543 399 598
918 14 139 15 446 0 562 -38 309 -152 618 -324 875 l-75 113 60 90 c181 271
273 552 286 877 18 471 -110 873 -349 1095 -138 127 -327 188 -513 165z m146
-743 c83 -56 114 -176 113 -437 0 -195 -11 -268 -55 -371 -70 -162 -211 -119
-278 84 -54 164 -56 441 -4 604 18 57 63 120 97 133 39 16 92 11 127 -13z
m-22 -2041 c92 -48 160 -204 190 -435 16 -126 14 -412 -4 -517 -34 -194 -110
-287 -236 -287 -132 0 -209 108 -240 340 -16 123 -5 429 20 553 37 181 101
308 172 343 42 21 62 21 98 3z"/>
<path d="M4475 13434 c-89 -20 -204 -73 -271 -125 -176 -136 -304 -414 -363
-789 -53 -334 -60 -853 -16 -1170 66 -476 237 -806 480 -928 121 -61 299 -75
408 -33 71 28 145 86 194 151 20 27 38 48 40 46 5 -5 -24 -451 -38 -581 -14
-142 -54 -309 -90 -382 -49 -101 -117 -138 -207 -113 -124 33 -191 185 -192
438 l0 102 -315 0 c-306 0 -315 -1 -315 -19 0 -41 31 -260 51 -361 99 -494
319 -799 633 -880 581 -148 940 297 1051 1305 26 242 34 379 47 779 17 566 -6
1174 -57 1526 -88 600 -280 910 -630 1020 -94 30 -308 37 -410 14z m270 -747
c82 -46 157 -202 190 -394 16 -96 35 -437 35 -626 0 -106 -3 -129 -31 -210
-39 -117 -78 -186 -135 -236 -115 -101 -262 -39 -327 138 -56 151 -78 433 -58
742 29 437 97 609 241 609 28 0 60 -9 85 -23z"/>
<path d="M20675 13426 c-376 -92 -601 -539 -689 -1371 -31 -293 -40 -516 -40
-1010 0 -644 23 -988 90 -1365 69 -386 203 -677 378 -822 252 -210 632 -191
865 43 234 236 359 669 411 1429 27 402 22 1181 -10 1575 -77 926 -309 1427
-702 1520 -75 18 -233 18 -303 1z m232 -753 c43 -20 95 -89 123 -163 73 -193
83 -426 77 -1645 -5 -963 -7 -1007 -58 -1165 -26 -81 -41 -111 -81 -155 -42
-49 -83 -68 -143 -68 -148 0 -231 147 -267 473 -18 164 -18 2077 0 2240 38
346 120 500 265 500 27 0 65 -8 84 -17z"/>
<path d="M2381 13288 c-102 -178 -262 -292 -453 -323 l-38 -6 0 -385 0 -384
28 6 c79 17 158 69 255 165 l97 98 0 -1799 0 -1800 296 0 297 0 -7 77 c-3 42
-6 1050 -6 2240 l0 2163 -219 0 -220 0 -30 -52z"/>
<path d="M7623 12658 c-11 -29 -60 -174 -108 -323 -48 -148 -100 -295 -115
-326 -23 -44 -72 -97 -237 -255 -362 -345 -403 -390 -403 -437 0 -10 26 -46
58 -80 100 -107 149 -191 195 -332 59 -179 73 -290 97 -790 10 -210 33 -363
62 -420 l15 -28 41 37 c48 44 122 157 202 307 98 184 167 249 264 249 66 0
125 -28 285 -134 69 -47 156 -99 192 -116 60 -27 199 -73 205 -67 6 5 -26 137
-44 183 -11 27 -67 144 -125 260 -120 244 -142 313 -135 437 4 63 11 94 31
134 39 77 156 212 387 448 212 218 310 336 360 435 25 49 27 59 14 64 -27 10
-210 6 -424 -9 -245 -18 -460 -19 -547 -4 -70 12 -88 28 -133 119 -63 125 -80
216 -89 477 -4 120 -11 207 -17 213 -8 8 -17 -5 -31 -42z"/>
<path d="M16146 11965 c-49 -72 -90 -163 -192 -423 -284 -719 -379 -834 -733
-887 -126 -19 -315 -19 -646 1 -216 13 -291 14 -373 5 -106 -11 -192 -39 -192
-63 0 -26 75 -124 154 -203 45 -44 135 -132 202 -195 66 -63 149 -146 185
-185 35 -38 111 -111 169 -160 57 -50 113 -105 123 -123 60 -103 -2 -246 -309
-711 -85 -128 -153 -236 -150 -239 3 -3 41 0 84 6 135 19 253 65 677 260 424
195 518 195 809 3 60 -40 112 -69 116 -64 14 16 40 111 144 533 58 234 115
454 126 490 28 83 55 135 218 425 150 266 272 509 272 541 l0 21 -127 -24
c-94 -17 -351 -53 -380 -53 -5 0 -15 105 -33 345 -35 453 -70 719 -99 748 -5
5 -25 -17 -45 -48z"/>
<path d="M10782 9500 c-84 -53 -185 -125 -512 -370 -457 -342 -524 -387 -561
-375 -12 4 -242 154 -513 335 -529 352 -552 367 -562 358 -8 -9 92 -241 290
-677 91 -200 166 -365 166 -366 0 -2 -21 -6 -47 -10 -131 -19 -793 -193 -815
-214 -10 -8 139 -121 259 -196 213 -135 413 -214 783 -310 323 -84 407 -124
880 -420 151 -95 320 -198 374 -229 102 -59 290 -156 302 -156 8 0 -2 342 -15
510 -10 130 -4 154 42 170 17 5 92 17 166 25 308 34 611 84 611 101 0 8 -137
69 -345 154 -232 95 -270 116 -356 198 -166 156 -192 345 -120 852 17 118 35
262 41 319 12 120 13 341 3 340 -5 0 -36 -18 -71 -39z"/>
<path d="M13833 8167 c-350 -353 -432 -425 -536 -471 -141 -63 -366 -76 -912
-53 -181 7 -332 12 -334 11 -10 -8 70 -97 251 -274 109 -107 198 -201 198
-209 0 -22 -65 -104 -120 -150 -29 -24 -102 -77 -163 -118 -62 -41 -114 -76
-116 -79 -4 -4 28 -1 234 21 849 92 1735 413 2455 890 168 111 433 305 426
312 -2 3 -93 -33 -203 -78 -315 -131 -460 -178 -594 -194 -73 -9 -140 18 -165
66 -33 65 -37 98 -43 376 -4 178 -10 286 -17 293 -7 7 -113 -93 -361 -343z"/>
<path d="M10885 5879 c-2631 -49 -5302 -345 -7970 -884 -258 -53 -506 -103
-550 -113 l-80 -17 -3 -1923 c-1 -1366 1 -1922 9 -1922 6 0 144 25 307 55
3770 693 7523 969 11197 825 2407 -95 4834 -373 7204 -825 157 -30 286 -53
288 -51 7 7 32 3721 25 3727 -6 6 -388 95 -727 169 -265 59 -800 169 -1065
220 l-265 50 -66 63 c-165 158 -413 202 -622 110 -82 -36 -111 -35 -417 15
-2289 371 -4835 547 -7265 501z m2441 -500 c61 -29 87 -85 86 -187 -1 -181
-238 -1112 -361 -1419 -11 -29 -17 -53 -13 -53 16 0 127 108 210 203 48 56
159 195 247 307 212 274 314 399 405 495 42 44 116 130 165 190 144 178 193
231 263 288 115 94 217 145 347 172 71 15 286 20 345 9 31 -7 32 -7 25 -52
-17 -114 -141 -421 -366 -904 -73 -156 -277 -605 -455 -998 -280 -618 -329
-720 -363 -752 -90 -85 -227 -72 -393 38 -37 25 -70 48 -72 52 -9 15 53 183
111 297 33 66 127 233 207 370 154 262 271 488 305 591 29 88 41 144 29 144
-18 0 -145 -139 -238 -260 -52 -69 -317 -393 -589 -720 -490 -591 -494 -595
-530 -594 -20 1 -61 11 -92 23 -160 61 -227 212 -185 420 9 46 51 176 93 290
205 560 320 961 265 927 -4 -2 -246 -390 -537 -861 l-530 -856 -35 4 c-19 3
-60 14 -90 26 -209 79 -229 273 -63 606 172 343 986 1597 1264 1946 118 148
190 204 324 251 96 33 163 36 221 7z m-4169 -29 c18 -10 39 -34 49 -51 29 -58
16 -107 -90 -329 -94 -198 -156 -340 -156 -360 0 -6 95 -10 251 -10 l252 0 -6
-53 c-10 -81 -35 -142 -79 -192 -75 -85 -153 -115 -355 -139 -99 -11 -131 -19
-168 -41 -113 -66 -225 -288 -395 -780 -96 -279 -182 -509 -243 -655 -58 -139
-167 -360 -190 -389 -14 -17 -147 -9 -222 14 -104 30 -205 122 -205 186 0 40
43 171 94 285 24 55 123 258 219 451 181 365 261 550 296 690 34 133 37 127
-71 119 -279 -20 -287 -20 -310 0 -36 33 -48 77 -48 184 l0 101 43 19 c61 27
114 37 309 60 249 28 313 51 365 132 15 24 78 155 141 292 62 137 129 273 148
301 44 68 123 141 177 165 57 26 151 27 194 0z m9776 -216 c38 -9 71 -23 74
-30 8 -20 -64 -159 -184 -359 -153 -253 -268 -432 -738 -1145 -245 -371 -468
-722 -550 -865 -186 -324 -271 -454 -302 -461 -37 -10 -144 3 -191 22 -68 27
-119 97 -136 187 -4 20 -10 37 -13 37 -3 0 -60 -30 -126 -67 -266 -148 -434
-186 -554 -125 -172 88 -233 384 -137 672 135 401 591 903 1012 1114 174 87
274 110 750 166 95 12 179 23 187 26 8 3 120 166 249 362 229 348 287 423 353
456 78 39 178 43 306 10z m-13259 -379 c164 -35 256 -130 256 -266 0 -129 -51
-197 -233 -313 -127 -81 -206 -115 -265 -116 -52 0 -72 10 -137 68 -69 62
-105 76 -185 69 -130 -11 -298 -95 -405 -202 -68 -67 -130 -178 -141 -251 l-6
-41 43 -7 c24 -3 130 -13 234 -21 366 -29 546 -64 690 -134 106 -51 166 -106
207 -188 180 -367 -292 -1027 -987 -1379 -365 -184 -690 -223 -922 -109 -167
82 -233 234 -184 424 38 150 142 312 270 418 80 65 208 131 275 140 l49 6 -5
-84 c-5 -98 -19 -130 -91 -209 -57 -62 -97 -140 -97 -187 l0 -33 83 0 c169 0
324 42 522 140 295 146 496 350 550 556 14 53 20 124 11 124 -24 0 -512 75
-588 90 -127 26 -292 80 -371 122 -70 38 -150 107 -182 159 -78 123 -69 295
26 455 43 74 209 243 313 319 242 177 603 353 863 420 174 45 295 54 407 30z
m5048 -294 c-8 -104 -110 -386 -282 -776 -100 -227 -223 -515 -297 -690 -120
-287 -213 -450 -290 -508 -98 -73 -186 -56 -317 63 l-67 60 -38 -27 c-21 -16
-66 -49 -100 -75 -78 -59 -122 -72 -232 -65 -107 6 -177 35 -253 107 -191 180
-194 505 -9 875 248 496 748 898 1285 1036 145 37 245 47 428 46 l175 -2 -3
-44z m4762 -134 l38 -17 -4 -67 c-6 -110 -60 -201 -267 -448 -247 -294 -489
-734 -443 -803 53 -79 532 363 881 812 224 289 322 366 518 410 76 17 293 23
293 8 0 -22 -42 -125 -84 -209 -53 -106 -173 -313 -304 -525 -50 -80 -147
-249 -217 -374 -171 -307 -246 -431 -315 -518 -95 -120 -166 -166 -256 -166
-52 0 -59 3 -89 35 -39 41 -61 100 -77 211 l-12 82 -26 -37 c-68 -93 -208
-196 -322 -237 -109 -38 -252 -35 -347 7 -167 74 -220 282 -146 575 49 195
216 484 445 768 61 77 143 182 182 235 117 159 178 216 277 258 48 20 69 23
146 20 54 -2 105 -10 129 -20z m-8281 -152 c181 -47 291 -172 304 -348 20
-265 -152 -499 -507 -690 -112 -60 -213 -103 -455 -193 -110 -41 -217 -86
-238 -100 -54 -35 -97 -107 -97 -160 0 -81 65 -124 186 -124 176 1 338 84 552
285 139 131 191 165 248 165 41 0 43 -2 59 -44 13 -32 16 -66 14 -123 -3 -67
-10 -91 -41 -155 -42 -84 -128 -183 -248 -286 -250 -214 -703 -292 -955 -165
-111 56 -170 127 -208 248 -31 99 -30 324 1 472 109 508 440 944 868 1145 172
80 378 109 517 73z m12590 -317 c91 -7 141 -16 144 -23 15 -40 -109 -309 -259
-560 -112 -187 -727 -1110 -781 -1171 -85 -97 -190 -124 -287 -74 -48 24 -150
102 -188 143 l-24 25 -67 -28 c-112 -46 -197 -64 -301 -64 -74 0 -105 5 -141
21 -116 52 -161 130 -167 294 -5 123 14 210 74 335 156 329 600 766 959 943
175 87 348 138 545 160 113 13 337 12 493 -1z"/>
<path d="M17614 3909 c-222 -37 -516 -220 -785 -488 -222 -221 -340 -405 -347
-541 -4 -64 -2 -69 28 -103 27 -31 39 -37 72 -37 57 0 128 38 250 133 325 252
641 583 788 822 49 79 100 187 100 210 0 17 -24 18 -106 4z"/>
<path d="M10097 4055 c-135 -50 -268 -145 -432 -310 -254 -254 -434 -550 -490
-808 -10 -43 -15 -80 -12 -83 11 -11 117 18 183 50 131 65 218 154 373 386 54
80 141 209 194 287 53 79 116 180 140 225 66 122 115 270 90 267 -5 0 -25 -7
-46 -14z"/>
<path d="M6870 3736 c-62 -23 -203 -97 -270 -141 -159 -106 -252 -245 -220
-329 8 -22 16 -26 49 -26 125 0 449 159 597 294 90 82 117 153 74 196 -17 17
-33 20 -107 19 -49 0 -104 -6 -123 -13z"/>
<path d="M19165 3471 c-197 -58 -386 -176 -605 -377 -255 -235 -383 -416 -415
-587 l-7 -37 74 0 c302 0 664 255 929 655 50 75 179 312 179 329 0 2 -7 12
-16 20 -20 20 -63 19 -139 -3z"/>
<path d="M292 2140 l-274 -5 646 -540 c355 -297 646 -542 646 -545 0 -3 -292
-226 -649 -495 l-648 -490 71 -2 c129 -5 3308 -53 3426 -52 l115 0 -95 35
c-401 149 -1071 289 -1857 389 l-53 7 0 702 c0 387 -3 771 -7 854 l-6 152
-521 -2 c-287 -1 -644 -5 -794 -8z"/>
<path d="M21967 1998 c-4 -83 -7 -467 -7 -854 l0 -702 -52 -7 c-787 -100
-1457 -240 -1858 -389 l-95 -35 115 0 c118 -1 3297 47 3426 52 l71 2 -648 490
c-357 269 -649 492 -649 495 0 3 291 248 646 545 l646 540 -309 6 c-169 4
-527 7 -794 8 l-486 1 -6 -152z"/>
<path d="M6482 1115 c-100 -28 -144 -64 -184 -150 -22 -48 -23 -63 -26 -317
-3 -219 -1 -278 12 -330 44 -172 154 -224 461 -215 182 5 240 19 304 73 84 72
106 187 98 504 -5 225 -16 277 -66 346 -20 28 -48 49 -92 69 -63 29 -67 29
-259 32 -148 2 -208 -1 -248 -12z m403 -179 c67 -28 70 -41 69 -316 0 -161 -4
-254 -12 -272 -22 -53 -60 -63 -232 -63 -179 0 -214 9 -236 61 -11 25 -14 92
-14 269 0 267 6 295 62 320 46 20 315 21 363 1z"/>
<path d="M7675 1116 c-69 -17 -105 -38 -148 -85 -55 -62 -67 -117 -74 -341 -9
-314 16 -443 98 -514 64 -54 122 -68 304 -73 247 -7 358 24 421 118 49 74 56
131 52 429 -3 252 -4 267 -26 315 -41 89 -97 132 -200 154 -70 15 -363 13
-427 -3z m401 -181 c59 -24 64 -51 64 -320 0 -177 -3 -244 -14 -269 -22 -52
-57 -61 -236 -61 -130 0 -160 3 -188 18 -53 29 -56 48 -57 317 0 274 3 287 68
315 46 20 315 20 363 0z"/>
<path d="M14417 1115 c-103 -28 -163 -94 -187 -205 -8 -37 -11 -143 -8 -325 3
-259 4 -272 27 -322 30 -67 83 -115 152 -139 80 -28 378 -28 463 0 118 39 159
110 172 296 l7 100 -99 0 -99 0 0 -83 c0 -139 -26 -157 -225 -157 -127 0 -174
14 -197 60 -9 18 -13 97 -13 282 l0 258 29 32 29 33 139 3 c209 5 228 -5 240
-135 l6 -63 95 0 95 0 -7 83 c-4 45 -11 98 -16 117 -23 84 -84 139 -181 166
-70 18 -354 18 -422 -1z"/>
<path d="M5310 615 l0 -505 90 0 90 0 0 215 0 215 235 0 235 0 0 90 0 90 -235
0 -235 0 0 110 0 110 245 0 245 0 0 90 0 90 -335 0 -335 0 0 -505z"/>
<path d="M8540 1030 l0 -90 150 0 150 0 0 -415 0 -415 95 0 95 0 0 415 0 415
150 0 150 0 0 90 0 90 -395 0 -395 0 0 -90z"/>
<path d="M9570 616 l0 -506 253 0 c138 0 281 5 317 10 167 27 222 100 222 295
1 102 -14 162 -48 199 l-24 25 22 43 c20 38 23 58 23 168 0 115 -2 129 -25
170 -18 33 -38 52 -75 70 -50 25 -52 25 -357 28 l-308 3 0 -505z m570 304 c15
-24 12 -153 -4 -176 -13 -17 -30 -19 -195 -22 l-181 -3 0 111 0 111 185 -3
c152 -2 187 -6 195 -18z m16 -404 c9 -13 14 -47 14 -101 0 -124 9 -119 -219
-123 l-191 -3 0 126 0 126 191 -3 c175 -3 192 -5 205 -22z"/>
<path d="M10951 1098 c-19 -52 -321 -858 -345 -920 l-25 -68 98 0 98 0 44 120
44 120 210 -2 210 -3 44 -117 44 -118 98 0 99 0 -11 28 c-6 15 -89 234 -184
487 -95 253 -176 468 -180 478 -6 15 -22 17 -121 17 -110 0 -115 -1 -123 -22z
m198 -389 l69 -184 -74 -3 c-41 -2 -106 -2 -144 0 l-68 3 44 120 c76 205 96
256 100 252 2 -2 35 -86 73 -188z"/>
<path d="M11820 615 l0 -505 355 0 355 0 0 90 0 90 -265 0 -265 0 0 415 0 415
-90 0 -90 0 0 -505z"/>
<path d="M12810 615 l0 -505 360 0 360 0 0 90 0 90 -265 0 -265 0 0 415 0 415
-95 0 -95 0 0 -505z"/>
<path d="M15350 615 l0 -505 360 0 360 0 0 90 0 90 -265 0 -265 0 0 415 0 415
-95 0 -95 0 0 -505z"/>
<path d="M16290 778 c0 -189 5 -374 10 -412 19 -129 68 -198 169 -238 50 -20
74 -22 236 -23 146 0 191 3 238 18 72 22 127 71 158 140 24 52 24 56 27 455
l3 402 -90 0 -90 0 -3 -378 c-3 -339 -5 -381 -20 -405 -27 -40 -75 -49 -241
-45 -145 3 -147 3 -174 31 l-28 27 -3 385 -3 385 -94 0 -95 0 0 -342z"/>
<path d="M17500 615 l0 -505 248 0 c343 0 422 15 485 89 39 47 51 96 52 211 0
111 -17 181 -54 214 -17 16 -17 18 7 67 21 43 25 64 25 147 0 119 -15 176 -57
218 -57 57 -103 64 -423 64 l-283 0 0 -505z m543 316 c20 -8 26 -19 32 -58 6
-45 -5 -127 -20 -141 -4 -4 -90 -8 -191 -10 l-184 -3 0 110 0 111 169 0 c93 0
181 -4 194 -9z m14 -397 c31 -9 47 -63 40 -142 -8 -98 -4 -96 -227 -100 l-190
-3 0 125 0 126 178 0 c97 0 187 -3 199 -6z"/>
<path d="M4360 929 c-357 -37 -702 -100 -1079 -195 -204 -51 -230 -59 -220
-68 8 -7 1522 -346 1527 -342 5 5 -16 493 -24 574 -3 31 -10 52 -17 51 -7 -1
-91 -9 -187 -20z"/>
<path d="M19016 897 c-8 -80 -29 -568 -24 -573 7 -6 1528 339 1528 347 0 8
-263 77 -475 124 -289 65 -578 109 -977 149 l-47 5 -5 -52z"/>
</g>
</svg>
